<svg width="173" height="347" viewBox="0 0 173 347" fill="none" xmlns="http://www.w3.org/2000/svg">
<rect x="1.5" y="1.5" width="170" height="344" rx="18.5" stroke="black" stroke-width="3"/>
<rect x="60.5" y="13" width="42" height="5" rx="2.5" fill="#2A2A2A"/>
<circle cx="110" cy="15.5" r="2.5" fill="#2A2A2A"/>
<rect x="13.5" y="35" width="146" height="36" rx="7" fill="#6DBE45" fill-opacity="0.15"/>
<path d="M28.5001 52.3337C27.6067 52.3337 26.8415 52.0152 26.2045 51.3782C25.5675 50.7412 25.2494 49.9763 25.2501 49.0837C25.2508 48.191 25.5689 47.4254 26.2045 46.787C26.8401 46.1486 27.6052 45.8311 28.5001 45.8347C29.3949 45.8384 30.1601 46.1561 30.7957 46.7881C31.4312 47.42 31.7494 48.1856 31.7501 49.0847C31.7508 49.9839 31.4327 50.7487 30.7957 51.3792C30.1587 52.0097 29.3935 52.3272 28.5001 52.3337ZM20.9167 60.1672V58.3841C20.9167 57.937 21.0467 57.5189 21.3067 57.1296C21.5675 56.7396 21.9177 56.437 22.3576 56.2217C23.3802 55.7314 24.4036 55.3637 25.4277 55.1189C26.4511 54.8734 27.4752 54.7506 28.5001 54.7506C29.5249 54.7506 30.5494 54.8734 31.5735 55.1189C32.5976 55.3645 33.6203 55.7321 34.6415 56.2217C35.0821 56.437 35.4323 56.7396 35.6923 57.1296C35.9531 57.5189 36.0834 57.937 36.0834 58.3841V60.1672H20.9167ZM22.0001 59.0839H35.0001V58.3841C35.0001 58.1443 34.9224 57.9186 34.7672 57.707C34.6126 57.4961 34.3985 57.3177 34.1247 57.1718C33.2335 56.7399 32.3141 56.4092 31.3666 56.1795C30.419 55.9498 29.4635 55.8346 28.5001 55.8339C27.5366 55.8332 26.5811 55.948 25.6336 56.1784C24.686 56.4088 23.7666 56.7396 22.8754 57.1707C22.601 57.3166 22.3868 57.495 22.233 57.7059C22.0777 57.9175 22.0001 58.1436 22.0001 58.3841V59.0839ZM28.5001 51.2514C29.0959 51.2514 29.6062 51.0391 30.0308 50.6144C30.4555 50.1897 30.6675 49.6791 30.6667 49.0826C30.666 48.486 30.4541 47.9761 30.0308 47.5529C29.6076 47.1297 29.0974 46.9174 28.5001 46.9159C27.9028 46.9145 27.3929 47.1268 26.9704 47.5529C26.5479 47.979 26.3356 48.4889 26.3334 49.0826C26.3312 49.6762 26.5436 50.1865 26.9704 50.6133C27.3972 51.0402 27.9071 51.2521 28.5001 51.2492" fill="#553C26"/>
<rect x="45.5" y="49" width="31" height="2" rx="1" fill="#2A2A2A" fill-opacity="0.78"/>
<rect x="45.5" y="55" width="53" height="2" rx="1" fill="#2A2A2A" fill-opacity="0.78"/>
<rect x="13.5" y="88" width="146" height="36" rx="7" fill="#6DBE45" fill-opacity="0.15"/>
<path d="M28.5001 105.334C27.6067 105.334 26.8415 105.015 26.2045 104.378C25.5675 103.741 25.2494 102.976 25.2501 102.084C25.2508 101.191 25.5689 100.425 26.2045 99.787C26.8401 99.1486 27.6052 98.8311 28.5001 98.8347C29.3949 98.8384 30.1601 99.1561 30.7957 99.7881C31.4312 100.42 31.7494 101.186 31.7501 102.085C31.7508 102.984 31.4327 103.749 30.7957 104.379C30.1587 105.01 29.3935 105.327 28.5001 105.334ZM20.9167 113.167V111.384C20.9167 110.937 21.0467 110.519 21.3067 110.13C21.5675 109.74 21.9177 109.437 22.3576 109.222C23.3802 108.731 24.4036 108.364 25.4277 108.119C26.4511 107.873 27.4752 107.751 28.5001 107.751C29.5249 107.751 30.5494 107.873 31.5735 108.119C32.5976 108.364 33.6203 108.732 34.6415 109.222C35.0821 109.437 35.4323 109.74 35.6923 110.13C35.9531 110.519 36.0834 110.937 36.0834 111.384V113.167H20.9167ZM22.0001 112.084H35.0001V111.384C35.0001 111.144 34.9224 110.919 34.7672 110.707C34.6126 110.496 34.3985 110.318 34.1247 110.172C33.2335 109.74 32.3141 109.409 31.3666 109.179C30.419 108.95 29.4635 108.835 28.5001 108.834C27.5366 108.833 26.5811 108.948 25.6336 109.178C24.686 109.409 23.7666 109.74 22.8754 110.171C22.601 110.317 22.3868 110.495 22.233 110.706C22.0777 110.918 22.0001 111.144 22.0001 111.384V112.084ZM28.5001 104.251C29.0959 104.251 29.6062 104.039 30.0308 103.614C30.4555 103.19 30.6675 102.679 30.6667 102.083C30.666 101.486 30.4541 100.976 30.0308 100.553C29.6076 100.13 29.0974 99.9174 28.5001 99.9159C27.9028 99.9145 27.3929 100.127 26.9704 100.553C26.5479 100.979 26.3356 101.489 26.3334 102.083C26.3312 102.676 26.5436 103.186 26.9704 103.613C27.3972 104.04 27.9071 104.252 28.5001 104.249" fill="#553C26"/>
<rect x="45.5" y="102" width="31" height="2" rx="1" fill="#2A2A2A" fill-opacity="0.78"/>
<rect x="45.5" y="108" width="53" height="2" rx="1" fill="#2A2A2A" fill-opacity="0.78"/>
<rect x="13.5" y="141" width="146" height="36" rx="7" fill="#6DBE45" fill-opacity="0.15"/>
<path d="M28.5001 158.334C27.6067 158.334 26.8415 158.015 26.2045 157.378C25.5675 156.741 25.2494 155.976 25.2501 155.084C25.2508 154.191 25.5689 153.425 26.2045 152.787C26.8401 152.149 27.6052 151.831 28.5001 151.835C29.3949 151.838 30.1601 152.156 30.7957 152.788C31.4312 153.42 31.7494 154.186 31.7501 155.085C31.7508 155.984 31.4327 156.749 30.7957 157.379C30.1587 158.01 29.3935 158.327 28.5001 158.334ZM20.9167 166.167V164.384C20.9167 163.937 21.0467 163.519 21.3067 163.13C21.5675 162.74 21.9177 162.437 22.3576 162.222C23.3802 161.731 24.4036 161.364 25.4277 161.119C26.4511 160.873 27.4752 160.751 28.5001 160.751C29.5249 160.751 30.5494 160.873 31.5735 161.119C32.5976 161.364 33.6203 161.732 34.6415 162.222C35.0821 162.437 35.4323 162.74 35.6923 163.13C35.9531 163.519 36.0834 163.937 36.0834 164.384V166.167H20.9167ZM22.0001 165.084H35.0001V164.384C35.0001 164.144 34.9224 163.919 34.7672 163.707C34.6126 163.496 34.3985 163.318 34.1247 163.172C33.2335 162.74 32.3141 162.409 31.3666 162.179C30.419 161.95 29.4635 161.835 28.5001 161.834C27.5366 161.833 26.5811 161.948 25.6336 162.178C24.686 162.409 23.7666 162.74 22.8754 163.171C22.601 163.317 22.3868 163.495 22.233 163.706C22.0777 163.918 22.0001 164.144 22.0001 164.384V165.084ZM28.5001 157.251C29.0959 157.251 29.6062 157.039 30.0308 156.614C30.4555 156.19 30.6675 155.679 30.6667 155.083C30.666 154.486 30.4541 153.976 30.0308 153.553C29.6076 153.13 29.0974 152.917 28.5001 152.916C27.9028 152.914 27.3929 153.127 26.9704 153.553C26.5479 153.979 26.3356 154.489 26.3334 155.083C26.3312 155.676 26.5436 156.186 26.9704 156.613C27.3972 157.04 27.9071 157.252 28.5001 157.249" fill="#553C26"/>
<rect x="45.5" y="155" width="31" height="2" rx="1" fill="#2A2A2A" fill-opacity="0.78"/>
<rect x="45.5" y="161" width="53" height="2" rx="1" fill="#2A2A2A" fill-opacity="0.78"/>
</svg>
